{
	"asset":{
		"generator":"Khronos glTF Blender I/O v5.0.21",
		"version":"2.0"
	},
	"scene":0,
	"scenes":[
		{
			"name":"Scene",
			"nodes":[
				0
			]
		}
	],
	"nodes":[
		{
			"mesh":0,
			"name":"Gem.001"
		}
	],
	"meshes":[
		{
			"name":"Gem.001",
			"primitives":[
				{
					"attributes":{
						"POSITION":0,
						"NORMAL":1
					},
					"indices":2
				}
			]
		}
	],
	"accessors":[
		{
			"bufferView":0,
			"componentType":5126,
			"count":145,
			"max":[
				0.9238799810409546,
				0.3500000238418579,
				0.9238799810409546
			],
			"min":[
				-0.9238799810409546,
				-0.800000011920929,
				-0.9238799810409546
			],
			"type":"VEC3"
		},
		{
			"bufferView":1,
			"componentType":5126,
			"count":145,
			"type":"VEC3"
		},
		{
			"bufferView":2,
			"componentType":5123,
			"count":192,
			"type":"SCALAR"
		}
	],
	"bufferViews":[
		{
			"buffer":0,
			"byteLength":1740,
			"byteOffset":0,
			"target":34962
		},
		{
			"buffer":0,
			"byteLength":1740,
			"byteOffset":1740,
			"target":34962
		},
		{
			"buffer":0,
			"byteLength":384,
			"byteOffset":3480,
			"target":34963
		}
	],
	"buffers":[
		{
			"byteLength":3864,
			"uri":"gem.bin"
		}
	]
}
